<svg xmlns="http://www.w3.org/2000/svg" width="32" height="32" viewBox="0 0 32 32">
  <!-- Checkerboard background (transparency symbol) -->
  <rect width="32" height="32" rx="6" fill="#18171C"/>
  <rect x="4" y="4" width="6" height="6" fill="#2A2930" opacity="0.6"/>
  <rect x="10" y="4" width="6" height="6" fill="#1E1D23" opacity="0.6"/>
  <rect x="4" y="10" width="6" height="6" fill="#1E1D23" opacity="0.6"/>
  <rect x="10" y="10" width="6" height="6" fill="#2A2930" opacity="0.6"/>
  <rect x="16" y="4" width="6" height="6" fill="#2A2930" opacity="0.4"/>
  <rect x="22" y="4" width="6" height="6" fill="#1E1D23" opacity="0.4"/>
  <rect x="16" y="10" width="6" height="6" fill="#1E1D23" opacity="0.4"/>
  <rect x="22" y="10" width="6" height="6" fill="#2A2930" opacity="0.4"/>
  <rect x="4" y="16" width="6" height="6" fill="#2A2930" opacity="0.4"/>
  <rect x="10" y="16" width="6" height="6" fill="#1E1D23" opacity="0.4"/>
  <rect x="4" y="22" width="6" height="6" fill="#1E1D23" opacity="0.4"/>
  <rect x="10" y="22" width="6" height="6" fill="#2A2930" opacity="0.4"/>
  <rect x="16" y="16" width="6" height="6" fill="#2A2930" opacity="0.3"/>
  <rect x="22" y="16" width="6" height="6" fill="#1E1D23" opacity="0.3"/>
  <rect x="16" y="22" width="6" height="6" fill="#1E1D23" opacity="0.3"/>
  <rect x="22" y="22" width="6" height="6" fill="#2A2930" opacity="0.3"/>
  <!-- Diamond mark (matches footer logo) -->
  <path d="M16 5L27 16L16 27L5 16L16 5Z" fill="url(#grad)" opacity="0.15"/>
  <path d="M16 9L23 16L16 23L9 16L16 9Z" fill="url(#grad)" opacity="0.35"/>
  <circle cx="16" cy="16" r="4.5" fill="url(#grad)"/>
  <!-- Gradient -->
  <defs>
    <linearGradient id="grad" x1="8" y1="8" x2="24" y2="24">
      <stop offset="0%" stop-color="#6366F1"/>
      <stop offset="100%" stop-color="#A78BFA"/>
    </linearGradient>
  </defs>
</svg>
